<?xml version="1.0" encoding="utf-8"?>
<!-- Generator: Adobe Illustrator 26.3.1, SVG Export Plug-In . SVG Version: 6.00 Build 0)  -->
<svg version="1.1" id="Layer_1" xmlns="http://www.w3.org/2000/svg" xmlns:xlink="http://www.w3.org/1999/xlink" x="0px" y="0px"
	 viewBox="0 0 218.6 112" style="enable-background:new 0 0 218.6 112;" xml:space="preserve">
<style type="text/css">
	.st0{fill:#2EC4B6;}
	.st1{fill:#143642;}
</style>
<path class="st0" d="M11,87.1c4.4,4.4,11,6.3,17.2,6.3c5,0,13.4-1.9,13.4-12.1v-5.1C36.8,81.8,31.4,84,25.4,84
	C11.5,84,0,74.9,0,55.1c0-19.3,11.1-28.9,25.4-28.9c6,0,11.6,2,16.3,7.5v-6.1h21.6v53.6c0,25-20.6,29.7-35,29.7
	c-9.9,0-18.8-2.6-26.3-8.6L11,87.1z M41.7,49c-2-2.4-6.1-3.7-8.9-3.7c-5.9,0-10.8,2.8-10.8,9.8s4.9,9.8,10.8,9.8
	c2.8,0,6.8-1.3,8.9-3.7C41.7,61.2,41.7,49,41.7,49z"/>
<path class="st0" d="M96,28v58H74.7V28H96z"/>
<path class="st0" d="M127.3,85.5l-22.4-57.8h22.7l11,33l11.1-33h22.7L150,85.5H127.3z"/>
<path class="st1" d="M207.1,52c-2.8,0-5.7,1.1-7.8,3.1c-2.1-2-5-3.1-7.8-3.1c-6.4,0-11.5,5.1-11.5,11.5c0,10.5,17.6,21.5,18.3,22
	c0.3,0.1,0.6,0.3,1,0.3c0.3,0,0.7-0.1,1-0.3c1.8-1.3,18.3-12.2,18.3-21.9C218.6,57.1,213.5,52,207.1,52z"/>
<ellipse class="st0" cx="85.3" cy="12" rx="11.9" ry="12"/>
</svg>
