<?xml version="1.0" encoding="utf-8"?>
<!-- Generator: Adobe Illustrator 26.3.1, SVG Export Plug-In . SVG Version: 6.00 Build 0)  -->
<svg version="1.1" id="Layer_1" xmlns="http://www.w3.org/2000/svg" xmlns:xlink="http://www.w3.org/1999/xlink" x="0px" y="0px"
	 viewBox="0 0 200 200" style="enable-background:new 0 0 200 200;" xml:space="preserve">
<style type="text/css">
	.st0{fill:#ED1C24;}
	.st1{fill:#F7931E;}
	.st2{fill:#FFC226;}
	.st3{opacity:0.5;}
	.st4{fill:#B3B3B3;}
	.st5{fill:#F15A24;}
</style>
<g>
	<g>
		<g>
			<g>
				
					<rect x="87.1" y="34.6" transform="matrix(0.3844 -0.9232 0.9232 0.3844 34.6415 160.6719)" class="st0" width="101.3" height="39.5"/>
			</g>
			<g>
				
					<rect x="94.8" y="53.5" transform="matrix(0.3844 -0.9232 0.9232 0.3844 36.518 169.568)" class="st1" width="101.1" height="7.8"/>
			</g>
			<g>
				
					<rect x="80.5" y="47.5" transform="matrix(0.3844 -0.9232 0.9232 0.3844 33.1912 152.6069)" class="st1" width="101.1" height="7.8"/>
			</g>
		</g>
	</g>
</g>
<g>
	<g>
		<g>
			
				<rect x="41.9" y="3.7" transform="matrix(0.9232 -0.3844 0.3844 0.9232 -16.3941 27.9081)" class="st0" width="39.5" height="102.6"/>
		</g>
		<g>
			
				<rect x="50.1" y="6.8" transform="matrix(0.9232 -0.3844 0.3844 0.9232 -18.1462 25.2159)" class="st1" width="7.8" height="102.3"/>
		</g>
		<g>
			
				<rect x="64.5" y="0.9" transform="matrix(0.9232 -0.3844 0.3844 0.9232 -14.7411 30.2847)" class="st1" width="7.8" height="102.3"/>
		</g>
	</g>
</g>
<g>
	<path class="st5" d="M166.6,132.9c0,37-30,67.1-67.1,67.1s-67.1-30-67.1-67.1c0-37,30-67.1,67.1-67.1S166.6,95.9,166.6,132.9z"/>
</g>
<g>
	<path class="st5" d="M99.5,192.5c-32.9,0-59.6-26.7-59.6-59.6c0-32.9,26.7-59.6,59.6-59.6c32.9,0,59.6,26.7,59.6,59.6
		C159.1,165.8,132.4,192.5,99.5,192.5z M99.5,82.8c-27.6,0-50.1,22.5-50.1,50.1c0,27.6,22.5,50.1,50.1,50.1
		c27.6,0,50.1-22.5,50.1-50.1C149.6,105.3,127.2,82.8,99.5,82.8z"/>
</g>
<g class="st3">
	<path class="st5" d="M99.5,65.8c-1.4,0-2.8,0.1-4.2,0.1v133.9c1.4,0.1,2.8,0.1,4.2,0.1c37,0,67.1-30,67.1-67.1
		C166.6,95.9,136.6,65.8,99.5,65.8z"/>
</g>
</svg>
