<?xml version="1.0" encoding="utf-8"?>
<!-- Generator: Adobe Illustrator 26.3.1, SVG Export Plug-In . SVG Version: 6.00 Build 0)  -->
<svg version="1.1" id="Layer_1" xmlns="http://www.w3.org/2000/svg" xmlns:xlink="http://www.w3.org/1999/xlink" x="0px" y="0px"
	 viewBox="0 0 135 194" style="enable-background:new 0 0 135 194;" xml:space="preserve">
<style type="text/css">
	.st0{fill:#DE1E24;}
	.st1{fill:#ED1C24;}
	.st2{fill:#FFC226;}
	.st3{fill:#FAA82A;}
	.st4{fill:#D8D7DB;}
	.st5{fill:#BABABE;}
	.st6{fill:#F89C51;}
	.st7{fill:#EC9046;}
	.st8{fill:#C97D40;}
	.st9{fill:#9D9DA1;}
	.st10{fill:#F7931E;}
</style>
<g>
	<g>
		<g>
			<g>
				
					<rect x="67.1" y="89" transform="matrix(0.9232 -0.3844 0.3844 0.9232 -47.0097 44.0952)" class="st0" width="39.5" height="101.3"/>
			</g>
		</g>
	</g>
</g>
<g>
	<g>
		<g>
			
				<rect x="-2.7" y="119.3" transform="matrix(0.3844 -0.9232 0.9232 0.3844 -98.4283 130.4671)" class="st1" width="102.6" height="39.5"/>
		</g>
	</g>
</g>
<g>
	<path class="st6" d="M134.6,67.1c0-37-30-67.1-67.1-67.1S0.5,30,0.5,67.1c0,37,30,67.1,67.1,67.1S134.6,104.1,134.6,67.1z"/>
</g>
<g>
	<path class="st7" d="M67.5,134.2c-1.4,0-2.8-0.1-4.2-0.1V0.1C64.8,0.1,66.1,0,67.5,0c37,0,67.1,30,67.1,67.1
		C134.6,104.1,104.6,134.2,67.5,134.2z"/>
</g>
<g>
	<path class="st8" d="M127.1,67.1c0,32.9-26.7,59.6-59.6,59.6C34.7,126.7,8,99.9,8,67.1C8,34.2,34.7,7.5,67.5,7.5
		C100.4,7.5,127.1,34.2,127.1,67.1z M117.6,67.1c0-27.6-22.5-50.1-50.1-50.1c-27.6,0-50.1,22.5-50.1,50.1
		c0,27.6,22.5,50.1,50.1,50.1C95.2,117.2,117.6,94.7,117.6,67.1z"/>
</g>
</svg>
